# xmcd CD database file
#
# Track frame offsets:
#	150
#	17790
#	33332
#	52897
#	69642
#	84990
#	109107
#	124065
#	140450
#	168230
#	188052
#	208280
#	220115
#	252917
#
# Disc length: 3634 seconds
#
# Revision: 0
# Processed by: cddbd v1.5.1PL0 Copyright (c) Steve Scherf et al.
# Submitted via: CDex 1.50beta10
#
DISCID=c20e300e
DTITLE=The (International) Noise Conspiracy - New Morning, Changing Weather
DYEAR=2002
DGENRE=Rock
TTITLE0=A Northwest Passage
TTITLE1=Up For Sale
TTITLE2=Bigger Cages, Longer Chains
TTITLE3=Breakout 2001
TTITLE4=A Body Treatise
TTITLE5=Born Into A Mess
TTITLE6=New Empire Blues
TTITLE7=Capitalism Stole My Virginity
TTITLE8=Last Century Promise
TTITLE9=Dead Language Of Love
TTITLE10=A New Morning, Changing Weather
TTITLE11=Ever Felt Cheated?
TTITLE12=United By Haircuts
TTITLE13=CD-EXTRA
EXTD=YEAR: 2002
EXTT0=
EXTT1=
EXTT2=
EXTT3=
EXTT4=
EXTT5=
EXTT6=
EXTT7=
EXTT8=
EXTT9=
EXTT10=
EXTT11=
EXTT12=
EXTT13=
PLAYORDER=
